<svg xmlns="http://www.w3.org/2000/svg" xmlns:xlink="http://www.w3.org/1999/xlink" version="1.1" x="0px" y="0px" viewBox="0 0 100 125" enable-background="new 0 0 100 100" xml:space="preserve"><path d="M31.548,30.793c-1.177-1.178-3.088-1.178-4.264,0c-10.591,10.591-10.591,27.824,0,38.414  c0.588,0.589,1.36,0.883,2.132,0.883s1.544-0.294,2.132-0.883c1.178-1.179,1.178-3.087,0-4.265c-8.239-8.239-8.239-21.646,0-29.885  C32.726,33.88,32.726,31.971,31.548,30.793z"/><path d="M21.207,24.709c1.178-1.177,1.178-3.087,0-4.264c-1.176-1.178-3.088-1.178-4.264,0C0.801,36.586,1.054,63.103,17.508,79.556  c0.588,0.589,1.36,0.883,2.132,0.883c0.772,0,1.544-0.294,2.132-0.883c1.178-1.179,1.178-3.087,0-4.265  C7.671,61.189,7.417,38.499,21.207,24.709z"/><path d="M72.719,30.793c-1.178-1.178-3.086-1.177-4.265-0.001c-1.178,1.178-1.178,3.087,0,4.265c8.237,8.239,8.237,21.646,0,29.885  c-1.178,1.178-1.178,3.088,0,4.265c0.59,0.589,1.361,0.883,2.133,0.883s1.543-0.294,2.132-0.883  C83.309,58.617,83.309,41.384,72.719,30.793z"/><path d="M83.06,20.445c-1.178-1.178-3.086-1.177-4.264-0.001c-1.178,1.178-1.178,3.087,0,4.265  c13.786,13.79,13.533,36.48-0.565,50.582c-1.178,1.178-1.178,3.088,0,4.265c0.589,0.589,1.36,0.883,2.132,0.883  s1.543-0.294,2.132-0.883C98.945,63.103,99.198,36.586,83.06,20.445z"/><circle cx="50" cy="50" r="11.25"/><text x="0" y="115" fill="#000000" font-size="5px" font-weight="bold" font-family="'Helvetica Neue', Helvetica, Arial-Unicode, Arial, Sans-serif">Created by Ben Avery</text><text x="0" y="120" fill="#000000" font-size="5px" font-weight="bold" font-family="'Helvetica Neue', Helvetica, Arial-Unicode, Arial, Sans-serif">from the Noun Project</text></svg>